<?xml version="1.0" standalone="no"?>
<!DOCTYPE svg PUBLIC "-//W3C//DTD SVG 1.1//EN" "http://www.w3.org/Graphics/SVG/1.1/DTD/svg11.dtd" >
<svg xmlns="http://www.w3.org/2000/svg">
<metadata>
Created by FontForge 20120731 at Mon Mar 27 15:00:14 2017
 By admin
</metadata>
<defs>
<font id="iconfont" horiz-adv-x="1024" >
  <font-face 
    font-family="iconfont"
    font-weight="500"
    font-stretch="normal"
    units-per-em="1024"
    panose-1="2 0 6 3 0 0 0 0 0 0"
    ascent="896"
    descent="-128"
    x-height="792"
    bbox="-30 -168 1210 919"
    underline-thickness="0"
    underline-position="0"
    unicode-range="U+0078-E910"
  />
<missing-glyph 
 />
    <glyph glyph-name=".notdef" 
 />
    <glyph glyph-name=".notdef" 
 />
    <glyph glyph-name=".null" horiz-adv-x="0" 
 />
    <glyph glyph-name="nonmarkingreturn" horiz-adv-x="341" 
 />
    <glyph glyph-name="x" unicode="x" horiz-adv-x="1001" 
d="M281 543q-27 -1 -53 -1h-83q-18 0 -36.5 -6t-32.5 -18.5t-23 -32t-9 -45.5v-76h912v41q0 16 -0.5 30t-0.5 18q0 13 -5 29t-17 29.5t-31.5 22.5t-49.5 9h-133v-97h-438v97zM955 310v-52q0 -23 0.5 -52t0.5 -58t-10.5 -47.5t-26 -30t-33 -16t-31.5 -4.5q-14 -1 -29.5 -0.5
t-29.5 0.5h-32l-45 128h-439l-44 -128h-29h-34q-20 0 -45 1q-25 0 -41 9.5t-25.5 23t-13.5 29.5t-4 30v167h911zM163 247q-12 0 -21 -8.5t-9 -21.5t9 -21.5t21 -8.5q13 0 22 8.5t9 21.5t-9 21.5t-22 8.5zM316 123q-8 -26 -14 -48q-5 -19 -10.5 -37t-7.5 -25t-3 -15t1 -14.5
t9.5 -10.5t21.5 -4h37h67h81h80h64h36q23 0 34 12t2 38q-5 13 -9.5 30.5t-9.5 34.5q-5 19 -11 39h-368zM336 498v228q0 11 2.5 23t10 21.5t20.5 15.5t34 6h188q31 0 51.5 -14.5t20.5 -52.5v-227h-327z" />
    <glyph glyph-name="resize" unicode="&#xe600;" horiz-adv-x="1000" 
d="M675 169q-80 -56 -178 -55q-8 0 -25 1q-2 0 -10 2q-13 1 -19 3q-1 0 -12 2q-12 3 -18 5q-1 0 -4 1t-5 2q-11 3 -20 7l-5 2q-14 7 -23 11q0 1 -0.5 1h-0.5q-39 22 -69 52q-1 0 -1 0.5v0.5q-11 10 -19 20q-2 3 -3 5q-67 83 -67 189h80l-128 192l-128 -192h80
q0 -124 71 -227l0.5 -1t1.5 -2q2 -3 14 -19q1 -1 3 -3.5t3 -3.5q8 -10 23 -25l2 -2q40 -40 90 -68l1 -0.5t2 -0.5q13 -8 29 -14q1 -1 3.5 -2t3.5 -1q9 -4 26 -10q7 -3 12 -4q12 -4 24 -6q13 -3 15 -4q6 -1 7 -1q4 -1 22 -3q6 -1 8 -1q22 -2 40 -2q126 0 229 72
q16 12 19.5 31.5t-7.5 35.5t-31 19.5t-36 -7.5v0zM901 418q0 124 -71 226q0 1 -0.5 2t-0.5 2q-7 9 -18 22q-1 2 -2 3q-62 74 -149 112q-1 1 -2.5 1.5t-2.5 1.5q-10 4 -29 10q-8 3 -10 3q-9 3 -25 7q-2 0 -6.5 1t-7.5 2q-1 0 -3.5 0.5t-3.5 1.5q-4 0 -19 2q-2 0 -6.5 0.5
t-6.5 1.5q-13 1 -32 1q-1 0 -3 0.5l-2 0.5q-1 0 -2 -1q-125 0 -228 -72q-16 -11 -19.5 -30.5t7.5 -36t31 -20t36 7.5q80 56 177 55q14 0 27 -1q2 0 8 -1q13 -2 21 -3q2 -1 9 -3q13 -2 21 -5l6 -2q14 -4 23 -8q1 0 1.5 -0.5l0.5 -0.5q68 -29 115 -86q0 -1 1 -1
q69 -84 69 -193h-80l128 -192l128 192h-80v0z" />
    <glyph glyph-name="diannao" unicode="&#xe601;" horiz-adv-x="1000" 
d="M871 727h-712q-20 0 -35 -15t-15 -35v-559q0 -22 15 -36.5t35 -14.5h306v-51h-153q-21 0 -35.5 -15t-14.5 -36v-51h507v51q0 21 -15 36t-36 15h-152v51h305q20 0 35 14.5t15 36.5v559q0 20 -15 35t-35 15v0zM820 168h-610v457h610v-457v0zM820 168z" />
    <glyph glyph-name="yonghu" unicode="&#xe60b;" 
d="M510 -143q-91 0 -173.5 35t-142 94.5t-94.5 142t-35 173.5t35 173.5t94.5 142t142 94.5t173.5 35t173.5 -35t142 -94.5t94.5 -142t35 -173.5t-35 -173.5t-94.5 -142t-142 -94.5t-173.5 -35zM510 664q-98 0 -181.5 -48.5t-132 -132t-48.5 -181.5q0 -139 94 -243
q26 13 46.5 16t55.5 17q31 13 52.5 22.5t27.5 13.5l7 3v66q-3 3 -7.5 8t-14 26t-12.5 49q-11 -3 -16.5 8t-6.5 26q0 2 -1 11.5t-1.5 16.5t0 14.5t4 11.5t8.5 3q-7 55 -5 73q4 41 40.5 73.5t90.5 35.5q63 -3 95 -34.5t37 -74.5q1 -17 -6 -73q5 1 8.5 -2.5t4 -11.5t0 -14.5
t-1.5 -16.5t-1 -12q-1 -15 -6.5 -26t-16.5 -8q-3 -28 -12 -48.5t-15 -27.5l-7 -6v-67q17 -9 87 -38q35 -14 55.5 -17.5t46.5 -16.5q94 104 94 243q0 98 -48.5 181.5t-132 132t-181.5 48.5z" />
    <glyph glyph-name="add" unicode="&#xe613;" 
d="M844 716q-90 90 -211 122t-241.5 0t-211.5 -122q-67 -68 -102.5 -155.5t-35.5 -176.5t35.5 -177t102.5 -155q91 -91 211.5 -123t241.5 0t211 123q68 67 103 155t35 177t-35 176.5t-103 155.5zM744 348h-188v-193h-98v193h-193v93h193v193h98v-193h188v-93z" />
    <glyph glyph-name="back" unicode="&#xe60d;" 
d="M700 -86q-24 0 -40 17l-413 413q-17 17 -17 40t17 40l413 413q16 17 39.5 17t40 -16.5t16.5 -40t-16 -40.5l-374 -373l374 -373q16 -17 16 -40.5t-16.5 -40t-39.5 -16.5v0z" />
    <glyph glyph-name="increase" unicode="&#xe630;" 
d="M935 437h-371v371q0 20 -14.5 34.5t-35 14.5t-34.5 -14.5t-14 -34.5v-371h-371q-21 0 -35 -14.5t-14 -34.5t14 -34.5t35 -14.5h371v-371q0 -20 14 -34.5t34.5 -14.5t35 14.5t14.5 34.5v371h371q20 0 34.5 14.5t14.5 34.5t-14.5 34.5t-34.5 14.5z" />
    <glyph glyph-name="table" unicode="&#xe633;" 
d="M931 790h-838q-19 0 -32 -13.5t-13 -31.5v-722q0 -18 13 -31.5t32 -13.5h838q19 0 32 13.5t13 31.5v722q0 18 -13 31.5t-32 13.5zM339 38h-230v158h230v-158zM339 248h-230v158h230v-158zM339 458h-230v158h230v-158zM627 38h-230v158h230v-158zM627 248h-230v158h230
v-158zM627 458h-230v158h230v-158zM915 38h-230v158h230v-158zM915 248h-230v158h230v-158zM915 458h-230v158h230v-158z" />
    <glyph glyph-name="right" unicode="&#xe60e;" 
d="M812 360l1 1.5l1 1.5q8 16 5 35t-17 32l-425 402q-17 17 -41 16t-40.5 -18t-16 -41t18.5 -41l381 -361l-380 -366q-17 -17 -17.5 -41t16.5 -41q17 -18 41 -18q23 0 40 16l422 407l0.5 1t1 1.5l1 1t1.5 0.5q1 2 7 12z" />
    <glyph glyph-name="time" unicode="&#xe61e;" 
d="M512.5 854q-95.5 0 -183 -37t-150.5 -100t-100 -150t-37 -183t37 -183t100 -150t150.5 -100t183 -37t182.5 37t150 100t100.5 150t37.5 183t-37.5 183t-100.5 150t-150 100t-182.5 37zM512 -13q-108 0 -199.5 53t-144.5 144.5t-53 199.5t53 199.5t144.5 144.5t199.5 53
t199.5 -53t144.5 -144.5t53 -199.5t-53 -199.5t-144.5 -144.5t-199.5 -53zM538 409v253h-74v-327h288v74h-214z" />
    <glyph glyph-name="arrow" unicode="&#xe611;" 
d="M512 849q-94 0 -180.5 -37t-148.5 -99t-99 -148.5t-37 -180.5t37 -180.5t99 -148.5t148.5 -99t180.5 -37t180.5 37t148.5 99t99 148.5t37 180.5t-37 180.5t-99 148.5t-148.5 99t-180.5 37zM512 -23q-110 0 -204 54.5t-148.5 148.5t-54.5 204t54.5 204t148.5 148.5
t204 54.5t204 -54.5t148.5 -148.5t54.5 -204t-54.5 -204t-148.5 -148.5t-204 -54.5zM591 579q-9 8 -21 8t-20.5 -8.5t-8.5 -20.5t9 -20l124 -125h-395q-12 0 -20.5 -8.5t-8.5 -20.5t8.5 -20.5t20.5 -8.5h395l-124 -125q-9 -8 -9 -20t8.5 -20.5t20.5 -8.5t21 8l174 174
q9 9 9 21t-9 21z" />
    <glyph glyph-name="warn" unicode="&#xe615;" 
d="M511.5 853q-95.5 0 -182.5 -37t-149.5 -100t-99.5 -149.5t-37 -182t37 -182t99.5 -149.5t149.5 -100t182.5 -37t182 37t149.5 100t100 149.5t37 182t-37 182t-100 149.5t-149.5 100t-182 37zM509 92q-24 1 -42 18.5t-18 42.5q-1 27 18 46t46 18q25 0 42.5 -17.5
t18.5 -42.5q1 -27 -18.5 -46t-46.5 -19zM575 328q0 -24 -15.5 -41t-37.5 -17h-19q-22 0 -37.5 17t-15.5 41l-23 290q0 24 15.5 41t37.5 17h62q22 0 37.5 -17t15.5 -41z" />
    <glyph glyph-name="check" unicode="&#xe662;" 
d="M781 803h-539q-62 0 -106 -44t-44 -106v-538q0 -62 44 -106.5t106 -44.5h539q62 0 106.5 44.5t44.5 106.5v538q0 62 -44.5 106t-106.5 44z" />
    <glyph glyph-name="gengduo" unicode="&#xe766;" 
d="M512 666q39 0 66.5 28t27.5 66.5t-27.5 66.5t-66.5 28t-66.5 -28t-27.5 -66.5t27.5 -66.5t66.5 -28zM512 478q-39 0 -66.5 -27.5t-27.5 -66.5t27.5 -66.5t66.5 -27.5t66.5 27.5t27.5 66.5t-27.5 66.5t-66.5 27.5zM512 102q-39 0 -66.5 -27.5t-27.5 -66.5t27.5 -67
t66.5 -28t66.5 28t27.5 67t-27.5 66.5t-66.5 27.5z" />
    <glyph glyph-name="shanchu-o" unicode="&#xe61b;" 
d="M919 765h-78h-1.5h-2h-2h-1.5h-268v48q0 17 -13 30t-31 13q-2 0 -10 -1q-8 1 -11 1q-18 0 -30.5 -12.5t-12.5 -30.5v-48h-261q-5 1 -10 1t-10 -1h-77q-40 0 -40 -34q0 -17 11 -27t29 -10h50v-697q2 -35 25.5 -58.5t57.5 -23.5h43v0h516q35 0 58 25t24 61l-1 694h46
q19 0 31 9.5t12 27.5q0 33 -43 33zM801 73q0 -43 -10.5 -61t-38.5 -23h-489q-18 3 -27.5 13.5t-12.5 29.5l-1 663h579v-706v84v0zM404 621q-15 0 -26 -10.5t-11 -25.5v-488q0 -15 11 -26t26 -11t25.5 11t10.5 26v488q0 15 -10.5 25.5t-25.5 10.5zM620 621q-15 0 -25.5 -10.5
t-10.5 -25.5v-488q0 -15 10.5 -26t25.5 -11t26 11t11 26v488q0 15 -11 25.5t-26 10.5z" />
    <glyph glyph-name="ok" unicode="&#xe63a;" 
d="M512 832q-91 0 -173.5 -35.5t-142 -95.5t-95 -142.5t-35.5 -173t35.5 -173t95 -142t142 -95t173 -35.5t173.5 35.5t142.5 95t95 142t35.5 173t-35.5 173t-95 142.5t-142.5 95.5t-173 35.5v0zM789 510l-333 -333q-6 -6 -14.5 -6t-14.5 6l-44 44v0l-144 144q-6 6 -6 14.5
t6 14.5l44 44q6 6 14.5 6t14.5 -6l130 -130l274 275q6 6 14.5 6t14.5 -6l44 -44q6 -6 6 -14.5t-6 -14.5v0zM789 510z" />
    <glyph glyph-name="close" unicode="&#xe610;" 
d="M979 -18l-65 -65l-402 402l-402 -402l-65 65l402 402l-402 402l65 65l402 -402l402 402l65 -65l-402 -402z" />
    <glyph glyph-name="10" unicode="&#xe62b;" 
d="M960 290v-224h-51q-12 32 -28 52q-13 19 -32 32t-45 22.5t-42 13.5t-47 10q-46 10 -64 17q-9 3 -17 7q29 32 47 74q22 53 22 110q0 114 -29 173q-22 43 -59 66q23 83 112 83q31 0 53 -10t35 -26t21 -41.5t10.5 -50.5t2.5 -59q0 -40 -16.5 -78.5t-43.5 -61.5q-5 -5 -5 -13
q-1 -28 5 -35q13 -18 40.5 -28t69.5 -18.5t61 -14.5zM140 117q14 19 33 33t45 23.5t43 13.5t49 11q45 8 65 15q10 4 16 7q-28 31 -47 74q-22 53 -23 108q-1 68 9 116q13 66 51 104q12 12 28 22q-24 83 -111 83q-31 0 -54 -10.5t-36 -26.5t-20.5 -41.5t-10 -51t-1.5 -59.5
q0 -40 16.5 -78t42.5 -61q6 -5 6 -13q0 -28 -5 -35q-13 -17 -40.5 -27t-70 -18t-61.5 -14v-226h51q10 29 25 51zM883 -107q0 -8 -5.5 -14t-13.5 -6h-703q-8 0 -13.5 6t-5.5 14q8 139 44 190q17 24 55 38t75.5 19.5t75 18t52.5 33.5q6 8 6 40q0 8 -6 14q-30 26 -48 68.5
t-18 86.5q-1 39 1.5 67.5t11 57t23 47t39.5 29.5t60 11q34 0 59 -11t39 -29t22.5 -46.5t11 -57t2.5 -66.5q0 -45 -18 -87.5t-47 -69.5q-6 -6 -6 -14q-1 -31 5 -40q15 -21 52 -34t74 -18t75 -19.5t55 -37.5q38 -50 46 -190v0z" />
    <glyph glyph-name="star-o" unicode="&#xe616;" 
d="M766 -85h-16q-33 14 -35 15q-77 42 -194 109q-7 4 -15 0l-119 -68q-11 -5 -33.5 -18.5t-40 -22.5t-35.5 -15h-17q-5 2 -6 2q-25 6 -40 27.5t-11 48.5q19 121 40 250q1 8 -5 14q-5 5 -64 67q-102 107 -107 112q-28 29 -16 68q11 37 49 46q3 1 28 5q164 25 208 32
q11 1 16 12q19 41 54 117t45 98q11 24 31 34q1 1 23 8h16q39 -8 60 -55q14 -31 29.5 -65t34.5 -75t30 -64q4 -9 12 -10q33 -5 108 -16.5t115 -17.5t57 -32q14 -20 11 -44t-21 -43q-150 -156 -170 -177q-5 -6 -4 -12q27 -172 39 -244q6 -33 -9 -55t-38 -28l-10 -3v0zM757 -16
v9q-32 196 -39 242q-7 39 20 67q29 30 167 173l8 9q-206 32 -231 35q-48 7 -66 49q-12 25 -97 210q0 1 -5 10q-5 -10 -5 -11l-100 -215q-16 -34 -50 -40q-15 -2 -180 -28q-4 -1 -64 -10l8 -9q140 -146 167 -174q26 -27 21 -61q-1 -5 -34 -212q-1 -1 -7 -45l10 6
q168 94 197 110q37 21 74 0q29 -16 196 -110l10 -5v0z" />
    <glyph glyph-name="add2" unicode="&#xe7c4;" 
d="M579 -18q0 -28 -19.5 -47.5t-47.5 -19.5t-47.5 19.5t-19.5 47.5v335h-335q-28 0 -47.5 19.5t-19.5 47.5t19.5 47.5t47.5 19.5h335v335q0 28 19.5 47.5t47.5 19.5t47.5 -19.5t19.5 -47.5v-335h335q28 0 47.5 -19.5t19.5 -47.5t-19.5 -47.5t-47.5 -19.5h-335v-335z" />
    <glyph glyph-name="shoucang" unicode="&#xe604;" 
d="M974.5 497.5q-6.5 19.5 -26.5 22.5l-281 43l-126 269q-9 20 -30 20v0q-21 0 -30 -19l-127 -269l-281 -42q-21 -3 -27 -22.5t8 -33.5l204 -211l-49 -296q-3 -21 14 -33t35 -2l252 139l251 -140q8 -4 16 -4h1q14 0 23.5 10t9.5 24q0 6 -2 11l-47 290l205 210
q14 14 7.5 33.5z" />
    <glyph glyph-name="shezhi" unicode="&#xe6a2;" 
d="M-30 919v0v0zM948 451l-75 11q-15 3 -28 13.5t-18 22.5q-6 18 -9 43t5 43l45 61q5 8 6.5 18.5t-1.5 20t-9 16.5l-34 33q-10 11 -26.5 12t-28.5 -7l-61 -45q-12 -10 -29 -12t-28 4q-10 5 -23.5 14t-26.5 21.5t-14 22.5l-12 75q-2 15 -14.5 25.5t-27.5 10.5h-47
q-9 0 -18 -5t-15.5 -13.5t-7.5 -17.5l-12 -75q-1 -10 -6.5 -19.5t-13.5 -17t-15 -9.5q-18 -6 -43.5 -9t-43.5 5l-60 45q-12 8 -28.5 7t-27.5 -12l-33 -33q-6 -7 -9.5 -16.5t-2 -20t7.5 -18.5l45 -61q9 -13 11 -29.5t-4 -28.5q-4 -9 -13 -22.5t-22 -26.5t-23 -15l-74 -11
q-8 -1 -14.5 -5t-11 -9.5t-8 -12.5t-3.5 -15v-47q0 -15 11 -27t26 -14l74 -12q10 -1 19.5 -6.5t17 -13.5t9.5 -15l2 -8q3 -5 4 -11l2 -12q1 -7 1.5 -13t0.5 -13v-12q0 -5 -1.5 -10t-3.5 -8l-45 -61q-9 -11 -8 -27.5t12 -27.5l33 -33q11 -11 27.5 -12t28.5 8l60 44q9 7 19 10
t21 2.5t18 -4.5q17 -8 39.5 -26.5t24.5 -31.5l12 -74q1 -10 7.5 -18.5t15.5 -13.5t18 -5h47q5 0 10 2t9.5 4t8 5t7 7.5t5.5 8.5t2 10l12 74q2 15 12.5 28.5t22.5 17.5q18 7 43.5 9.5t42.5 -5.5l61 -44q6 -5 13.5 -6.5t15 -1t14.5 3.5t12 8l33 33q11 11 12 27.5t-7 27.5
l-45 61q-10 12 -12 29t4 29q5 9 14 22.5t21.5 27t22.5 14.5l75 12q15 2 25.5 14t10.5 27v47q0 10 -5 19t-13.5 15.5t-17.5 7.5v0v0zM516 200q-77 0 -131.5 54.5t-54.5 131t54.5 131t131.5 54.5t131 -54.5t54 -131t-54 -131t-131 -54.5v0z" />
    <glyph glyph-name="jinlingyingcaiwangtubiao12" unicode="&#xe70f;" 
d="M506 262q-102 0 -174 72t-72 173.5t72 173.5t174 72t174 -72t72 -173.5t-72 -173.5t-174 -72zM747 -168v0h-1.5h-1.5h-501q-56 3 -88 38.5t-34 96.5q-1 14 4 33t10 29q53 108 153 170.5t220 62.5q126 0 230 -65.5t146 -172.5q33 -84 -2 -135q-16 -24 -48.5 -38
t-51.5 -16.5t-35 -2.5z" />
    <glyph glyph-name="path3" unicode="&#xe618;" horiz-adv-x="1093" 
d="M956 -73h-818q-37 0 -62.5 23.5t-25.5 58.5v96q0 35 25.5 58.5t62.5 23.5h818q37 0 62.5 -23.5t25.5 -58.5v-96q0 -35 -25.5 -58.5t-62.5 -23.5zM856.5 119q-26.5 0 -45 -18t-18.5 -44t18.5 -44t45 -18t45.5 18t19 44t-19 44t-45.5 18zM956 249h-818q-37 0 -62.5 23
t-25.5 58v96q0 35 25.5 58.5t62.5 23.5h818q37 0 62.5 -23.5t25.5 -58.5v-96q0 -35 -25.5 -58t-62.5 -23zM856.5 440q-26.5 0 -45 -18t-18.5 -44t18.5 -44t45 -18t45.5 18t19 44t-19 44t-45.5 18zM956 570h-818q-37 0 -62.5 23t-25.5 59v95q0 35 25.5 58.5t62.5 23.5h818
q37 0 62.5 -23.5t25.5 -58.5v-95q0 -36 -25.5 -59t-62.5 -23zM793 699q0 -26 18.5 -44t45 -18t45.5 18t19 44t-19 44t-45.5 18t-45 -18t-18.5 -44z" />
    <glyph glyph-name="xuanze" unicode="&#xe631;" horiz-adv-x="1025" 
d="M512 854q-96 0 -183 -37.5t-149.5 -100.5t-100 -150t-37.5 -182q0 -96 37.5 -183t100.5 -149.5t150 -100t182 -37.5q96 0 183 37.5t149.5 100.5t100 150t37.5 182t-37 182t-100 150t-150 100.5t-183 37.5zM512 172q-88 0 -150 62t-62 150t62 150t150 62t150 -62t62 -150
t-62 -150t-150 -62z" />
    <glyph glyph-name="shouye" unicode="&#xe61f;" 
d="M512 812q-295 -254 -459 -391q-17 -16 -17 -37q0 -20 14 -33.5t34 -13.5h95v-333q0 -20 14 -34t34 -14h142q20 0 34 14t14 34v190h190v-190q0 -20 14 -34t34 -14h142q20 0 34 14t14 34v333h95q20 0 34 13.5t14 33.5q0 22 -19 37q-72 61 -186.5 159t-192.5 165l-78 67v0v0
z" />
    <glyph glyph-name="renzheng" unicode="&#xe620;" 
d="M904 719h-39q-8 0 -26.5 1.5t-65 11t-86.5 25.5q-41 17 -80 38t-53 30.5t-19 12.5l-23 17l-23 -17q-60 -43 -152 -81q-40 -16 -86.5 -25.5t-65 -11t-26.5 -1.5h-39v-396q0 -70 42 -146t102.5 -132.5t128.5 -93t119 -36.5t119 36.5t128.5 93t102.5 132.5t42 146v396z
M468 213l-166 142l51 60l107 -91l202 234l60 -52z" />
    <glyph glyph-name="arrow1" unicode="&#xe603;" 
d="M516 235l384 379q1 1 5 5.5t7 7.5t7.5 6.5t8 5.5t8 2t8.5 -3l35 -19q7 -7 7 -16.5t-7 -16.5l-445 -442q-7 -7 -17 -7.5t-17 6.5zM112 623zM529 143q-6 -7 -16 -6.5t-17 7.5l-445 442q-7 6 -7 16t7 17l35 19q4 3 8.5 3t8 -2t8 -5.5t7.5 -6.5t7 -7.5t5 -5.5l390 -382z
M918 623z" />
    <glyph glyph-name="ping" unicode="&#xe625;" 
d="M901 325h-771q-42 0 -65 16.5t-23 42.5t23 42.5t65 16.5h771q81 0 81 -59t-81 -59z" />
    <glyph glyph-name="fanhui" unicode="&#xe63d;" 
d="M804 487q44 -27 88.5 -91t64.5 -141q13 -49 19 -100.5t5 -78.5v-27q-37 60 -52 81q-12 16 -30.5 37t-60 54t-86.5 53q-43 20 -109 29.5t-110 8.5l-43 -1v-188l-453 320l453 321v-190q109 -9 165 -20q43 -9 80 -26t53 -29z" />
    <glyph glyph-name="login-o" unicode="&#xe621;" 
d="M764 852h-432q-60 0 -102 -42t-42 -102h72q0 30 21 51t51 21h432q30 0 51 -21t21 -51v-648q0 -30 -21 -51t-51 -21h-432q-30 0 -51 21t-21 51h-72q0 -60 42 -102t102 -42h432q60 0 102 42t42 102v648q0 60 -42 102t-102 42zM415 198q-11 -11 -11 -27t10.5 -27t25.5 -11
t25 11l195 205q14 1 23 11t9 24v2q0 14 -9 24t-23 11l-195 205q-10 11 -25 11t-25.5 -11t-10.5 -26.5t11 -26.5l143 -151h-406q-15 0 -25.5 -10.5t-10.5 -25.5v-2q0 -15 10.5 -25.5t25.5 -10.5h405z" />
    <glyph glyph-name="search" unicode="&#xe605;" 
d="M960 47l-225 226q-1 1 -8 7q60 92 60 203q0 101 -50 187t-135.5 136t-186.5 50t-187 -50t-136 -136t-50 -187.5t50 -187.5t136 -135.5t187 -49.5q110 0 203 60q4 -6 6 -8l225 -226q23 -22 55.5 -22t55.5 22.5t23 55t-23 55.5v0zM415 227q-105 0 -180 75t-75 180.5
t75 180.5t180 75t179.5 -75t74.5 -180.5t-74.5 -180.5t-179.5 -75z" />
    <glyph glyph-name="duanxin-o" unicode="&#xe622;" 
d="M250 419.5q0 -24.5 17.5 -42t42 -17.5t41.5 17.5t17 42t-17 42t-41.5 17.5t-42 -17.5t-17.5 -42zM459 419.5q0 -24.5 17 -42t41.5 -17.5t42 17.5t17.5 42t-17.5 42t-42 17.5t-41.5 -17.5t-17 -42zM670 419.5q0 -24.5 17 -42t41.5 -17.5t42 17.5t17.5 42t-17.5 42
t-42 17.5t-41.5 -17.5t-17 -42zM301.5 -12q-17.5 0 -29.5 12t-12.5 29.5t12.5 29.5l73 75q15 15 37 12q95 -16 128 -16q106 0 195 39t141 106t52 146.5t-52 146.5t-141 106t-195 39t-195 -39t-141 -106t-52 -147q3 -106 95 -189q27 -22 39 -29q15 -9 18.5 -26.5t-6.5 -32.5
q-9 -15 -26.5 -18.5t-32.5 6.5q-27 18 -49 37q-58 52 -89.5 117t-31.5 135q0 102 63.5 188.5t172.5 137t237 50.5t237 -50.5t172.5 -137t63 -188t-63.5 -188.5t-172 -137.5t-237 -50.5q-49 0 -122 14l-59 -59q-12 -12 -29.5 -12z" />
    <glyph glyph-name="lock-fill" unicode="&#xe606;" 
d="M814 463h-67v155q0 97 -69 166t-166 69t-166 -69t-69 -166v-155h-67q-24 0 -41 -17t-17 -41v-424q0 -24 17 -41t41 -17h604q24 0 41 17t17 41v424q0 24 -17 41t-41 17zM545 182v-93q0 -8 -8 -8h-50q-8 0 -8 8v93q-18 9 -28.5 26t-10.5 38q0 30 21 51t51 21t51 -21t21 -51
q0 -21 -10.5 -38t-28.5 -26zM657 463h-290v151q0 60 42.5 102.5t102.5 42.5t102.5 -42.5t42.5 -102.5v-151z" />
    <glyph glyph-name="bianji1-o" unicode="&#xe64a;" horiz-adv-x="1026" 
d="M910.5 437q-13.5 0 -23 -9.5t-9.5 -22.5v-370q0 -24 -16.5 -41t-40.5 -17h-658q-24 0 -41 17t-17 41v658q0 23 17 40t41 17h398q13 0 22.5 9.5t9.5 23t-9.5 22.5t-22.5 9h-398q-50 0 -85 -35t-35 -85v-658q0 -50 35 -85.5t85 -35.5h658q50 0 85 35.5t35 85.5v370
q1 12 -8 21.5t-22.5 9.5zM968 839q-14 14 -33.5 14t-32.5 -14l-443 -442l-24 -75q-3 -8 3 -13.5t14 -3.5l75 25l442 442q14 14 13.5 33.5t-14.5 33.5z" />
    <glyph glyph-name="hook" unicode="&#xe6ba;" 
d="M958 690q-19 20 -47.5 20.5t-48.5 -19.5l-463 -465l-239 246q-18 19 -45.5 18t-47.5 -21.5t-20.5 -48.5t17.5 -47l292 -300q19 -19 46 -18.5t47 21.5q9 9 14 21q6 4 8 6l486 488q20 20 20.5 49t-19.5 50v0zM958 690z" />
    <glyph glyph-name="shanchu1" unicode="&#xe6d8;" 
d="M512 848q-94 0 -180 -36.5t-148.5 -99t-99 -148.5t-36.5 -180t36.5 -180t99 -148.5t148.5 -99t180 -36.5t180 36.5t148.5 99t99 148.5t36.5 180t-36.5 180t-99 148.5t-148.5 99t-180 36.5zM773 344h-522v80h522v-80z" />
    <glyph glyph-name="chart" unicode="&#xe74c;" 
d="M936 9h-848q-18 0 -31 12.5t-13 29.5v676q0 18 13 30t31 12t31 -12t13 -30v-633h804q18 0 31 -12.5t13 -30t-13 -30t-31 -12.5zM834 136h-88q-18 0 -31 12.5t-13 29.5v296q0 17 13 29.5t31 12.5h88q18 0 30.5 -12.5t12.5 -29.5v-296q0 -17 -12.5 -29.5t-30.5 -12.5z
M585 136h-88q-18 0 -30.5 12.5t-12.5 29.5v465q0 17 12.5 29.5t30.5 12.5h88q18 0 31 -12.5t13 -29.5v-465q0 -17 -13 -29.5t-31 -12.5zM337 136h-88q-18 0 -31 12.5t-13 29.5v85q0 17 13 29.5t31 12.5h88q18 0 30.5 -12.5t12.5 -29.5v-85q0 -17 -12.5 -29.5t-30.5 -12.5z
" />
    <glyph glyph-name="gonggao" unicode="&#xe60f;" horiz-adv-x="1261" 
d="M1164 437h-223q-19 0 -32.5 -13.5t-13.5 -32.5v-14q0 -19 13.5 -32.5t32.5 -13.5h223q19 0 32.5 13.5t13.5 32.5v14q0 19 -13.5 32.5t-32.5 13.5zM647 832q-36 -29 -153 -100.5t-166 -106.5v0q-1 0 -2 -2.5t-2 -3.5q-2 -1 -8.5 -6.5t-13 -9t-23 -7t-39.5 -3.5h-131
q-55 0 -55 -51v-315q0 -53 55 -53h131q23 0 39.5 -3t23 -7t13 -9.5t9.5 -6.5l1 -2.5t2 -2.5v0q54 -40 170.5 -113.5t148.5 -97.5q10 -7 24 -11.5t30.5 -4t27.5 18t11 52.5v794q0 35 -11 52t-27.5 17t-30.5 -5.5t-24 -12.5zM853 614q9 -15 24 -18.5t28 7.5l183 154
q13 11 16 29.5t-6 34.5l-7 12q-9 16 -24 19t-28 -7l-183 -155q-13 -11 -16 -29.5t6 -34.5zM905 165q-13 11 -28 7.5t-24 -19.5l-7 -12q-9 -15 -6 -34t16 -30l183 -154q13 -11 28 -7.5t24 19.5l7 12q9 15 6 34t-16 29z" />
    <glyph glyph-name="bangzhu" unicode="&#xe607;" 
d="M512 852q-95 0 -182 -37t-149.5 -99.5t-99.5 -149.5t-37 -182t37 -182t99.5 -149.5t149.5 -99.5t182 -37t182 37t149.5 99.5t99.5 149.5t37 182t-37 182t-99.5 149.5t-149.5 99.5t-182 37zM559 56h-94v94h94v-94zM656 419l-42 -43q-29 -29 -42 -56.5t-13 -75.5h-94v23
q0 77 55 132l58 59q28 28 28 66.5t-27.5 66t-66.5 27.5t-66.5 -27.5t-27.5 -66.5h-93q0 78 54.5 133t132.5 55t132.5 -55t54.5 -133q0 -61 -43 -105z" />
    <glyph glyph-name="kaiguan" unicode="&#xe602;" 
d="M512 -83q-96 0 -182.5 37t-149.5 99.5t-100.5 149.5t-37.5 182q0 105 44 197.5t121 158.5q6 7 14 11l4 3t6 5h37v-4q16 -5 26.5 -19.5t10.5 -32.5q0 -22 -14 -38h2q-64 -50 -101 -123.5t-37 -157.5q0 -97 48 -179t130 -129.5t179 -47.5t179 47.5t130 129.5t48 179
q0 84 -37 157.5t-102 123.5h3q-15 16 -15 38q0 24 19 41v15h56q2 -1 3.5 -2.5t3.5 -3t3 -2.5q8 -5 13 -10q77 -66 121 -159t44 -198q0 -95 -37 -182t-100 -149.5t-150 -99.5t-182 -37v0zM512 348q-31 0 -53 22t-22 53v355q0 32 22 54t53 22t53 -22t22 -54v-355
q0 -31 -22 -53t-53 -22z" />
    <glyph glyph-name="dian" unicode="&#xe614;" 
d="M349 391q0 -73 51.5 -124t123.5 -51t123.5 51t51.5 124v0q0 72 -51.5 123.5t-123.5 51.5t-123.5 -51.5t-51.5 -123.5v0z" />
    <glyph glyph-name="label-book" unicode="&#xe609;" 
d="M419 852h491q18 -7 21 -11q4 -5 5 -11t1 -15.5v-11.5q-1 -334 0 -667q0 -16 -9 -24q-5 -6 -28 -8q-8 0 -175 0.5t-334 0t-186 -2.5q-29 -4 -45.5 -31t-6.5 -55q6 -22 26 -35.5t44 -13.5h331h331v33.5t1 33.5q-1 10 7 18t18 7q10 1 18 -7t7 -18q1 -44 0 -92q1 -11 -8 -19
t-21 -7h-642h-22t-26.5 0.5t-21.5 2.5q-27 5 -49.5 21.5t-34.5 41.5q-7 11 -15 53v696q7 38 12 49q12 26 35.5 44.5t51.5 23.5q18 3 25 4v-25v-566l101 107l98 -108v592z" />
    <glyph glyph-name="yanjing" unicode="&#xe624;" 
d="M511 795q-57 0 -110 -14.5t-94 -38t-77 -54.5t-62.5 -65t-48.5 -68.5t-36.5 -65t-24.5 -54.5t-14 -38l-4 -14q2 -9 7 -24t23 -57.5t41 -81.5t62.5 -86.5t85.5 -81.5t112 -57.5t140 -23.5q66 0 128 23.5t107 57.5t86 81.5t66 86.5t47 81.5t28 57.5t9 24v0q-2 8 -6 23
t-21 58t-38 81.5t-60 86t-85 82t-114.5 58t-146.5 23.5v0zM511 89q-122 0 -208 86t-86 207.5t86 208t208 86.5t208 -86.5t86 -208t-86 -207.5t-208 -86v0zM511 546q-68 0 -116 -47.5t-48 -115.5t48 -116t116 -48t116 48t48 116t-48 115.5t-116 47.5zM563.5 402
q-21.5 0 -37 15.5t-15.5 37.5t15.5 37.5t37 15.5t37 -15.5t15.5 -37.5t-15.5 -37.5t-37 -15.5z" />
    <glyph glyph-name="calendar" unicode="&#xe61d;" horiz-adv-x="1046" 
d="M386 297h-137v136h137v-136zM592 433h-136v-136h136v136zM799 433h-137v-136h137v136zM386 234h-137v-137h137v137zM592 234h-136v-137h136v137zM799 234h-137v-137h137v137zM849 709q0 -18 -12 -30t-29.5 -12t-30 12t-12.5 30v106q0 18 12.5 30t30 12t29.5 -12t12 -30
v-106zM280 815q0 18 -12 30t-29.5 12t-30 -12t-12.5 -30v-106q0 -17 12.5 -29.5t30 -12.5t29.5 12.5t12 29.5v106zM900 754v-43q0 -39 -27 -66.5t-65.5 -27.5t-66 27.5t-27.5 66.5v43h-383v-43q0 -39 -27 -66t-65.5 -27t-66 27t-27.5 66v43h-101v-833h955v833h-99zM907 14
h-770v516h770v-516zM907 14z" />
    <glyph glyph-name="xiaoxi" unicode="&#xe608;" 
d="M512 849q-126 0 -233.5 -54.5t-169.5 -148t-62 -204.5q0 -94 46.5 -177t127.5 -140v-206l204 124q45 -8 87 -8q126 0 233.5 54.5t169.5 148.5t62 204.5t-62 204t-169.5 148t-233.5 54.5zM279.5 384q-24.5 0 -41.5 17t-17 41t17 41t41.5 17t41.5 -17t17 -41t-17 -41
t-41.5 -17zM512 384q-24 0 -41 17t-17 41t17 41t41 17t41 -17t17 -41t-17 -41t-41 -17zM744.5 384q-24.5 0 -41.5 17t-17 41t17 41t41.5 17t41.5 -17t17 -41t-17 -41t-41.5 -17z" />
    <glyph glyph-name="xinghao" unicode="&#xe612;" 
d="M698 447l-164 -63l164 -63q63 -24 72.5 -38.5t9.5 -29.5q0 -38 -14 -43q-15 -5 -29.5 -5t-29.5 7.5t-34 21.5l-151 135l34 -203q5 -14 5 -26v-17q0 -29 -14.5 -41t-34.5 -12q-15 0 -32.5 9.5t-17.5 43.5q0 9 3 19q2 10 2 24l40 203l-154 -135q-15 -9 -32 -19
q-18 -10 -33 -10t-29.5 9.5t-14.5 38.5q0 20 14.5 34.5t67.5 33.5l164 63l-164 63q-35 15 -58 26q-24 12 -24 42q0 24 14 36q15 12 29.5 12t31.5 -7.5t32 -21.5l151 -135l-34 203q0 14 -2 24q-3 9 -3 19q0 19 15 36t34 17q30 0 40 -19.5t10 -33.5v-22q0 -12 -5 -22l-40 -202
l154 135q20 19 35 24t30 5q19 0 31.5 -14.5t12.5 -34t-9.5 -31.5t-72.5 -36z" />
    <glyph glyph-name="lingdang" unicode="&#xe626;" 
d="M912 101q-2 57 -29 106.5t-71 83.5v209q0 90 -57 159.5t-144 87.5v5q0 41 -29.5 70.5t-70.5 29.5v0q-42 0 -71.5 -29.5t-29.5 -70.5v-5q-86 -18 -143.5 -87.5t-57.5 -159.5v-209q-44 -34 -70.5 -83.5t-29.5 -106.5h100v-1h603v1h100zM489 -81h25q49 0 85.5 32.5
t42.5 79.5h-263q6 -47 42.5 -79.5t85.5 -32.5h-18z" />
    <glyph glyph-name="arrow2" unicode="&#xe617;" 
d="M308 857l-62 -62l409 -409l-411 -412l63 -63l473 474zM308 857z" />
    <glyph glyph-name="iconfontyingyongzhuce" unicode="&#xe60c;" horiz-adv-x="1146" 
d="M495 332h-416q-11 0 -18.5 -7.5t-7.5 -18.5v-416q0 -11 7.5 -18.5t18.5 -7.5h416q11 0 18.5 7.5t7.5 18.5v416q0 11 -7.5 18.5t-18.5 7.5zM1067 332h-416q-11 0 -18.5 -7.5t-7.5 -18.5v-416q0 -11 7.5 -18.5t18.5 -7.5h416q11 0 18.5 7.5t7.5 18.5v416q0 11 -7.5 18.5
t-18.5 7.5zM495 904h-416q-11 0 -18.5 -7.5t-7.5 -18.5v-416q0 -11 7.5 -18.5t18.5 -7.5h416q11 0 18.5 7.5t7.5 18.5v416q0 11 -7.5 18.5t-18.5 7.5zM120 826q0 5 3 8.5t8 3.5h312q5 0 8.5 -3.5t3.5 -8.5v-312q0 -5 -3.5 -8.5t-8.5 -3.5h-312q-5 0 -8 3.5t-3 8.5v312z
M1067 904h-416q-11 0 -18.5 -7.5t-7.5 -18.5v-416q0 -11 7.5 -18.5t18.5 -7.5h416q11 0 18.5 7.5t7.5 18.5v416q0 11 -7.5 18.5t-18.5 7.5z" />
    <glyph glyph-name="bianji3" unicode="&#xe632;" 
d="M96 120l-51 -154l51 -51l154 51l554 554l-154 154l-554 -554v0zM957 776l-51 51q-21 21 -51 21t-51 -21l-103 -102l154 -154l102 103q22 21 22 51t-22 51z" />
    <glyph glyph-name="bank" unicode="&#xe627;" horiz-adv-x="1098" 
d="M546 856l506 -202v-68h-67q0 -13 -11 -23t-26 -10h-804q-15 0 -26 10t-11 23h-67v68zM175 519h135v-405h67v405h135v-405h68v405h135v-405h67v405h135v-405h31q15 0 26 -10t11 -24v-33h-878v33q0 14 11 24t26 10h31v405v0zM1016 13q15 0 25.5 -10t10.5 -24v-68h-1012v68
q0 14 10.5 24t25.5 10h940v0z" />
    <glyph glyph-name="zhanghao-o" unicode="&#xe628;" 
d="M670 360q52 40 83 97.5t31 123.5q0 113 -80.5 194t-195.5 81q-113 0 -194.5 -80.5t-81.5 -194.5q0 -66 31.5 -125.5t83.5 -99.5q-123 -44 -199.5 -155.5t-76.5 -249.5q0 -17 12 -28.5t27 -11.5q17 0 28.5 12t11.5 28q0 97 47 178.5t128.5 128.5t178.5 47h4h4
q97 0 178.5 -47t128.5 -128.5t47 -178.5q0 -17 12 -28t28 -11q17 0 28 11.5t11 27.5q6 139 -71 250t-204 159v0zM315 581q0 80 56.5 136.5t136.5 56.5t136.5 -56.5t56.5 -136.5t-56.5 -136.5t-136.5 -56.5t-136.5 56.5t-56.5 136.5v0zM315 581z" />
    <glyph glyph-name="sorting-asc" unicode="&#xe623;" 
d="M434 632h157q6 0 8.5 -5t-0.5 -10q-16 -29 -78 -136q-3 -5 -8.5 -5t-8.5 5q-52 88 -79 136q-3 5 0 10t9 5zM709 447h-388q-14 0 -21.5 11.5t0.5 25.5q38 67 194 335q7 13 20.5 13t21.5 -13q9 -16 97.5 -168.5t96.5 -167.5q7 -11 0.5 -23.5t-21.5 -12.5z" />
    <glyph glyph-name="sorting" unicode="&#xe657;" 
d="M291 323q9 11 23 11h383q14 0 23 -11q10 -11 10 -26.5t-10 -26.5l-192 -225q-9 -11 -22.5 -11t-22.5 11l-192 225q-10 11 -10 26.5t10 26.5zM720 454q-9 -11 -23 -11h-383q-14 0 -23 11q-10 11 -10 26t10 26l192 226q9 11 22.5 11t22.5 -11l192 -226q10 -11 10 -26
t-10 -26z" />
    <glyph glyph-name="xiangqing1-o" unicode="&#xe629;" 
d="M510.5 770q78.5 0 150.5 -30q69 -29 122.5 -82.5t82.5 -123.5q31 -71 31 -150t-31 -150q-29 -70 -82.5 -123.5t-122.5 -82.5q-72 -30 -150.5 -30t-150.5 30q-69 29 -122.5 82.5t-82.5 123.5q-31 71 -31 150t31 150q29 70 82.5 123.5t122.5 82.5q72 30 150.5 30zM511 851
q-95 0 -181.5 -37t-149 -99.5t-99.5 -149t-37 -181.5t37 -181.5t99.5 -149t149 -99.5t181 -37t181 37t149 99.5t99.5 149t37 181.5t-37 181.5t-99.5 149t-149 99.5t-180.5 37v0zM261 384q0 -25 17.5 -42.5t42.5 -17.5t42.5 17.5t17.5 42.5t-17.5 42.5t-42.5 17.5
t-42.5 -17.5t-17.5 -42.5zM451 384q0 -25 17.5 -42.5t42 -17.5t42 17.5t17.5 42.5t-17.5 42.5t-42 17.5t-42 -17.5t-17.5 -42.5zM640 384q0 -25 17.5 -42.5t42.5 -17.5t42.5 17.5t17.5 42.5t-17.5 42.5t-42.5 17.5t-42.5 -17.5t-17.5 -42.5z" />
    <glyph glyph-name="zhanghao-copy" unicode="&#xe62a;" 
d="M982 -49v0q0 -16 -13.5 -26.5t-30.5 -10.5h-852q-17 0 -30.5 10.5t-13.5 26.5v0v0q0 6 0.5 16t7 38t17.5 52.5t35.5 51t57.5 40.5q38 15 65.5 19t73.5 18l110 44l-7 59q-4 1 -11 3.5t-25.5 12.5t-33.5 23t-29.5 36t-18.5 49q-19 -5 -31.5 16.5t-12.5 42.5q0 5 -2 18.5
t-2.5 25t0 23t7.5 17.5t19 4q-14 103 -14 125q2 10 2.5 22.5t2 18.5t9 16.5t22.5 23.5q4 3 0.5 27t-0.5 32q2 4 12 6t24 2.5t26.5 0t25.5 -1t15 -0.5q55 22 118 22q63 -3 111.5 -19t77 -42t43 -54.5t17.5 -60.5q0 -66 -14 -118q10 2 16 -4t7.5 -18t1 -23t-1.5 -25t-1 -18
q0 -21 -12.5 -42.5t-31.5 -16.5q-5 -28 -17 -51.5t-26 -36.5t-28 -22t-23 -12l-9 -2l-8 -59q23 -8 111 -44q43 -18 72.5 -22t66.5 -22q35 -15 60.5 -40.5t37.5 -49t18.5 -50t7.5 -36.5t1 -15v0v0v0zM982 -49z" />
    <glyph glyph-name="gongdanguanli-o" unicode="&#xe69c;" 
d="M818 249l-51 35q0 3 1.5 10t1.5 11q0 16 -3 22l47 37q6 6 2 13l-44 77q-5 5 -13 2l-56 -22q-11 9 -37 22l-9 57q1 4 -2 7.5t-7 3.5h-89q-3 0 -7 -3t-4 -6l-9 -59q-8 -3 -37 -22l-53 22q-9 3 -16 -4l-44 -77q-5 -4 4 -13l47 -35q0 -3 -1 -10t-1 -12q0 -15 2 -21l-47 -38
q-6 -5 -2 -13l44 -76q5 -5 14 -2l55 22q11 -9 38 -22l9 -57q0 -9 11 -9h88q4 0 7.5 3t3.5 6l9 57q27 13 38 22l55 -22q9 -5 13 4l45 77q4 9 -3 13zM603.5 229q-31.5 0 -54.5 22.5t-23 53.5t23 54t54.5 23t54.5 -23t23 -54t-23 -53.5t-54.5 -22.5zM884 694h-558
q-39 0 -66 -27t-27 -66v-589q0 -39 27 -66t66 -27h558q39 0 66 27t27 66v589q0 39 -27 66t-66 27zM915 12q0 -13 -9 -22t-22 -9h-558q-13 0 -22 9t-9 22v589q0 13 9 22t22 9h558q13 0 22 -9t9 -22v-589zM202 136h-62q-13 0 -22 9t-9 22v589q0 13 9 22t22 9h558q13 0 22 -9
t9 -22v-31h62v31q0 39 -27 66t-66 27h-558q-39 0 -66 -27t-27 -66v-589q0 -39 27 -66t66 -27h62v62z" />
    <glyph glyph-name="shaixuan1-o" unicode="&#xe731;" 
d="M944 720l-314 -336v-470l-235 141v329l-315 336q-37 35 -37 63q0 29 19.5 50t47.5 21h22h738h44q28 0 48 -20.5t19 -50.5q0 -16 -9.5 -31.5t-18.5 -23.5zM870 783h-716q-22 -1 -22 -14q1 -13 22 -33l311 -329v-297l94 -55v352l311 329q0 1 3 3.5t6 5.5t6 6.5t5 7.5t2 8
q0 16 -22 16z" />
    <glyph glyph-name="xin-o" unicode="&#xe694;" horiz-adv-x="1069" 
d="M766 809q-72 0 -133 -37.5t-95 -99.5q-33 62 -94.5 99.5t-133.5 37.5q-107 0 -182.5 -76t-75.5 -183q0 -101 69 -176l395 -397q10 -9 22 -9t22 9l395 397q68 74 68 176q0 107 -75 183t-182 76v0zM906 416l-368 -374l-368 374q-53 56 -53 134q0 80 56.5 137t136.5 57
q64 0 115 -38t71 -97q5 -13 16.5 -21t25.5 -8q31 0 43 28v0q19 60 70 98t115 38q80 0 136.5 -56.5t56.5 -137.5q1 -77 -53 -134v0z" />
    <glyph glyph-name="user" unicode="&#xe893;" 
d="M512 853q-95 0 -182 -37t-150 -100t-100 -150t-37 -182t37 -182t100 -150t150 -100t182 -37t182 37t150 100t100 150t37 182t-37 182t-100 150t-150 100t-182 37zM777 82q0 23 -22 31q-2 1 -16 7t-25 10t-28 10t-35.5 11t-37.5 8v14q48 48 77 128.5t29 154.5
q0 99 -49.5 154t-140.5 55q-94 0 -148 -55.5t-54 -153.5q0 -53 20.5 -137t63.5 -137v-18q-96 -24 -148 -42q-12 -5 -17 -15.5t-3 -22.5q-63 56 -98.5 134t-35.5 166q0 109 54 202t146.5 146.5t202 53.5t202 -53.5t146.5 -146.5t54 -202q0 -89 -36.5 -167.5t-100.5 -134.5v0z
" />
    <glyph glyph-name="loudong" unicode="&#xe62c;" 
d="M984 318q0 -16 -11 -27t-26 -11h-132q0 -102 -40 -171l122 -124q11 -11 11 -26.5t-11 -26.5t-26.5 -11t-26.5 11l-116 117q-2 -2 -9 -7q-5 -4 -25 -17q-22 -14 -39 -22q-18 -9 -49 -17q-27 -7 -57 -7v528h-75v-529q-28 0 -59 8q-28 7 -52 19q-16 9 -39 23q-14 9 -26 19
l-9 9l-108 -122q-12 -13 -28 -13q-14 0 -25 10q-12 12 -12 26q-1 17 9 28l119 133q-35 69 -35 162h-132q-15 0 -26 11t-11 26.5t11 26.5t26 11h132v174l-101 102q-12 11 -12 26.5t11.5 26.5t27 11t26.5 -11l102 -101h498l102 101q11 11 26.5 11t26.5 -11t11 -26.5t-11 -26.5
l-101 -102v-173h132q15 0 26 -11q11 -12 11 -27v0zM701 658h-378q0 78 55.5 133.5t133.5 55.5t134 -56q55 -54 55 -133v0zM701 658z" />
    <glyph glyph-name="liebiao" unicode="&#xe61c;" 
d="M928 657l-832 -1q-23 0 -39.5 16t-16.5 38t16.5 38t39.5 16h832q23 0 39.5 -15.5t16.5 -38t-16.5 -38t-39.5 -15.5v0zM928 334l-832 -1q-23 0 -39.5 16t-16.5 38t16.5 38t39.5 16h832q23 0 39.5 -15.5t16.5 -38t-16.5 -38t-39.5 -15.5v0zM928 11h-832q-23 0 -39.5 15.5
t-16.5 38t16.5 38t39.5 15.5l832 1q23 0 39.5 -16t16.5 -38t-16.5 -38t-39.5 -16v0z" />
    <glyph glyph-name="map" unicode="&#xe634;" 
d="M395 212l6 -6q43 -56 87 -92l30 -25l30 25q43 35 88 92q3 4 5 7q133 182 154 308q4 25 4 40q1 121 -84 206q-82 82 -197 82q-114 0 -196 -82q-85 -86 -84 -207q0 -15 3 -39q21 -128 154 -309zM518.5 661q48.5 0 82.5 -34.5t34 -82.5t-34 -82.5t-82.5 -34.5t-83 34.5
t-34.5 82.5t34.5 82.5t83 34.5zM959 618l-32 -9v-1l-92 -27q-1 -34 -4 -54l96 33v-512l-273 -81v0l-326 94l-233 -78v505l96 25q-3 19 -3 43v2l-140 -35v-602l47 16l233 78l326 -95l319 94v608z" />
    <glyph glyph-name="ui" unicode="&#xe635;" 
d="M876 660l-306 177q-24 13 -58 13t-57 -13l-306 -177q-24 -14 -41 -43t-17 -57v-353q0 -27 17 -56.5t41 -43.5l306 -177q23 -13 57 -13t58 13l306 177q24 14 41 43.5t17 56.5v353q0 28 -17 57t-41 43v0zM613 384q0 -85 -60 -144.5t-144.5 -59.5t-144 59.5t-59.5 144.5v0
v155q0 20 14 34t34 14t34 -14t14 -34v-155q0 -45 31.5 -76.5t76 -31.5t76 31.5t31.5 76.5v155q0 20 14 34t34 14t34.5 -14t14.5 -34v-155v0zM820 228q0 -20 -14 -34t-34 -14t-34.5 14t-14.5 34v311q0 20 14.5 34t34.5 14t34 -14t14 -34v-311zM820 228z" />
    <glyph glyph-name="form" unicode="&#xe636;" 
d="M861 683h-69q-16 0 -25.5 -9.5t-9.5 -25.5t9.5 -25.5t25.5 -9.5h34v-629h-628v629h34q16 0 25.5 9.5t9.5 25.5t-9.5 25.5t-25.5 9.5h-69q-16 0 -25.5 -9.5t-9.5 -25.5v-699q0 -15 9.5 -24.5t25.5 -9.5h698q16 0 25.5 9.5t9.5 24.5v699q0 16 -9.5 25.5t-25.5 9.5zM337 439
h350q15 0 25 9.5t10 25t-10 25t-25 9.5h-350q-15 0 -25 -9.5t-10 -25t10 -25t25 -9.5zM372 613h280q15 0 25 9.5t10 25.5t-10 25.5t-25 9.5h-4q0 5 2 17.5t2 17.5q0 58 -41 99t-99 41t-99 -41t-41 -99q0 -5 2 -17.5t2 -17.5h-4q-15 0 -25 -9.5t-10 -25.5t10 -25.5t25 -9.5z
M512 788q29 0 49.5 -20.5t20.5 -49.5q0 -19 -11 -35h-118q-11 16 -11 35q0 29 20.5 49.5t49.5 20.5zM337 264h350q15 0 25 9.5t10 25.5t-10 25.5t-25 9.5h-350q-15 0 -25 -9.5t-10 -25.5t10 -25.5t25 -9.5zM337 89h350q15 0 25 9.5t10 25.5t-10 25.5t-25 9.5h-350
q-15 0 -25 -9.5t-10 -25.5t10 -25.5t25 -9.5z" />
    <glyph glyph-name="app-o" unicode="&#xe90e;" 
d="M412 853h-302q-28 0 -47.5 -19.5t-19.5 -47.5v-302q0 -27 19.5 -47t47.5 -20h302q27 0 47 20t20 47v302q0 28 -20 47.5t-47 19.5zM412 484h-302v302h302v-302zM412 351h-302q-28 0 -47.5 -20t-19.5 -47v-302q0 -28 19.5 -47.5t47.5 -19.5h302q27 0 47 19.5t20 47.5v302
q0 27 -20 47t-47 20zM412 -18h-302v302h302v-302zM914 853h-302q-27 0 -47 -19.5t-20 -47.5v-302q0 -27 20 -47t47 -20h302q28 0 47.5 20t19.5 47v302q0 28 -19.5 47.5t-47.5 19.5zM914 484h-302v302h302v-302zM914 351h-302q-27 0 -47 -20t-20 -47v-302q0 -28 20 -47.5
t47 -19.5h302q28 0 47.5 19.5t19.5 47.5v302q0 27 -19.5 47t-47.5 20zM914 -18h-302v302h302v-302z" />
    <glyph glyph-name="shouquan01" unicode="&#xe62d;" 
d="M401 461l-356 -356v-188h189v0v144h144v0v144h144l67 68q46 -15 94 -15q123 0 210 87t87 210t-87 210t-210 87t-210 -87t-87 -210q0 -48 15 -94v0zM709 483q-41 0 -70.5 29t-29.5 70.5t29.5 71t71 29.5t70.5 -29.5t29 -71t-29 -70.5t-71 -29v0z" />
    <glyph glyph-name="zhanghao-copy1" unicode="&#xe62e;" 
d="M512 389q97 0 165.5 68.5t68.5 166t-68.5 166t-165.5 68.5t-165.5 -68.5t-68.5 -166t68.5 -166t165.5 -68.5zM512 272q-49 0 -109 -9t-123.5 -28.5t-116 -46.5t-86 -66t-33.5 -84v-117h936v117q0 45 -33.5 84t-86 66t-116 46.5t-123.5 28.5t-109 9z" />
    <glyph glyph-name="zizhanghao-o" unicode="&#xe6c4;" 
d="M853 86q-8 125 -95 215t-210 102v29q76 11 128 69.5t52 136.5q1 87 -60.5 149.5t-148.5 63t-149 -60.5t-63 -148q-1 -79 50 -138t127 -71v-29q-123 -11 -211 -98.5t-98 -210.5q-28 -9 -45 -32t-17 -53q-1 -36 25 -62.5t63 -27t63.5 25.5t27.5 63q0 27 -15 49.5t-40 32.5
q10 98 79.5 168.5t167.5 80.5l-1 -171q-25 -10 -41 -32.5t-16 -50.5q-1 -36 25 -62.5t63 -27t63.5 25.5t26.5 63q1 28 -15.5 51t-42.5 33l1 170q97 -12 165.5 -82t77.5 -168q-28 -9 -45 -32t-17 -52q-1 -37 25 -63.5t63 -27t63.5 25.5t26.5 63q0 28 -14.5 50.5t-38.5 32.5z
M202 -17q-11 0 -18.5 8t-7.5 19t8 18.5t19 7.5t18.5 -8t7.5 -19t-8 -18.5t-19 -7.5zM370.5 641q0.5 61 44 104t104.5 42.5t104 -44t42.5 -104.5t-44 -104t-104.5 -42.5t-104 44t-42.5 104.5zM515 59q-11 0 -18.5 8t-7.5 19t8 18.5t19 7.5t18.5 -8t7.5 -19q0 -10 -8 -18
t-19 -8zM817 -22q-11 0 -19 8t-8 19t8 18.5t19 7.5t18.5 -7.5t7.5 -19.5q0 -11 -8 -18.5t-18 -7.5z" />
    <glyph glyph-name="bank-o" unicode="&#xe6d3;" 
d="M121 66q-9 0 -15.5 6.5t-6.5 15.5t6.5 15.5t15.5 6.5h40v410h-79q-16 0 -27 11.5t-11 26.5q0 25 24 36l427 213q17 8 34 0l430 -215q14 -7 19 -22t-2 -29q-10 -20 -34 -20v-1h-79v-410h39q10 0 16.5 -6t6.5 -15.5t-6.5 -16t-16.5 -6.5h-781zM237 520v0v-410h133v410h-133
zM445 520v0v-410h133v410h-133zM654 520v0v-410h133v410h-133zM783 596v0l-271 135l-271 -135h542zM82 -32v0q-16 0 -27 11t-11 26.5t11 26.5t27 11h860q16 0 27 -11t11 -26.5t-11 -26.5t-27 -11h-860z" />
    <glyph glyph-name="quanping-o" unicode="&#xe62f;" 
d="M671 504l253 251l-1 -142q0 -9 6 -16t15 -6h15q9 0 15.5 5t6.5 14l1 212v11q0 10 -5 15q-6 7 -15 7l-11 -1h-1l-210 1q-9 0 -15.5 -6.5t-6.5 -15.5v-15q1 -10 8.5 -16t16.5 -6h138l-251 -251q-9 -8 -9 -20.5t9 -21t21 -8.5t20 9v0v0zM354 267l-253 -251l1 142
q0 9 -6 15.5t-15 6.5h-16q-9 0 -15.5 -5.5t-6.5 -13.5l-1 -213v-3v-5.5v-2.5q0 -10 5 -15q6 -7 15 -6h11h1l211 -1q9 0 15.5 6.5t6.5 15.5v15q-2 11 -9 17t-16 5l-139 1l252 250q8 9 8 21t-8.5 20.5t-20.5 8.5t-20 -8v0v0zM982 -52l-1 213q0 8 -6.5 13.5t-15.5 5.5h-15
q-9 0 -15 -6.5t-6 -15.5l1 -143l-253 252q-8 8 -20 8t-21 -8.5t-9 -20.5t9 -21l251 -250l-138 -1q-9 1 -16.5 -5t-8.5 -17v-15q0 -9 6.5 -15.5t15.5 -6.5l210 1h0.5h0.5h11q9 -1 15 6q5 5 5 15v11v0v0zM144 796h138q9 0 16 6t9 16v15q0 9 -6.5 15.5t-15.5 6.5l-211 -1h-1v0
l-11 1q-9 0 -15 -7q-5 -5 -5 -15v-11l1 -212q0 -9 6.5 -14t15.5 -6h16q9 0 15 6.5t6 15.5l-1 142l252 -251q9 -8 21 -8t21 8.5t9 20.5t-9 21l-251 251v0zM144 796z" />
    <glyph glyph-name="copy2-o" unicode="&#xe712;" 
d="M915 585v-604h-604v604h604zM915 652h-604q-29 0 -48 -20t-19 -47v-604q0 -30 18.5 -48.5t48.5 -18.5h604q30 0 48.5 18.5t18.5 48.5v604q0 27 -19 47t-48 20zM109 183v604h604v-68h67v68q0 30 -18.5 48.5t-48.5 18.5h-604q-29 0 -48 -20.5t-19 -46.5v-604
q0 -30 18.5 -48.5t48.5 -18.5h68v67h-68z" />
    <glyph glyph-name="xin" unicode="&#xe619;" horiz-adv-x="1182" 
d="M843 856q-79 0 -147 -41.5t-105 -110.5q-38 69 -106.5 110.5t-148.5 41.5q-118 0 -202 -84t-84 -204q0 -111 76 -196l439 -441q11 -9 24.5 -9t24.5 9l439 441q76 83 76 196q0 120 -84 204t-202 84z" />
    <glyph glyph-name="unlock" unicode="&#xe61a;" 
d="M582 462h-462q-24 0 -40.5 -16.5t-16.5 -40.5v-430q0 -23 16.5 -40t40.5 -17h613q24 0 40.5 17t16.5 40v430q0 24 -16.5 40.5t-40.5 16.5h-151zM468 171v-95q0 -2 -1.5 -4t-3.5 -2h-2h-50q-3 0 -4.5 1.5t-1.5 3.5l-1 1v95q-38 19 -38 64q0 29 22 52.5t54 23.5
q30 0 53 -22t23 -54q-5 -20 -18.5 -37t-31.5 -27zM569 614q0 62 42 104t103.5 42t103.5 -42t42 -104v-152h95v159q0 99 -70.5 169.5t-170 70.5t-170 -70.5t-70.5 -169.5v-159h95v152z" />
    <glyph glyph-name="sas" unicode="&#xe60a;" 
d="M974 744l-1 29l-27 13q-10 4 -29 12t-69 25.5t-99.5 31t-116.5 24.5t-125.5 11t-125.5 -11t-117 -24.5t-100 -31t-68.5 -25t-29.5 -12.5l-26 -13l-1 -29q1 -18 -1 -65.5t6.5 -149t25.5 -184.5l82 79q-20 146 -19 287q209 84 373.5 84t373.5 -84q1 -238 -43 -400
q-15 -55 -49.5 -106t-71.5 -85.5t-82.5 -65.5t-73.5 -46t-54 -26q-27 12 -57 28.5t-75 46.5t-87.5 72.5t-71.5 90.5l135 147l132 -111l214 234l4 -80l86 5l-12 236l-227 -11l4 -86l79 4l-157 -172l-132 111l-241 -261l15 -29q30 -62 80 -117t94.5 -89t95.5 -63t71.5 -38
t33.5 -14l16 -6l17 6q9 4 23 10t49.5 24t69 39.5t76 56t77 72.5t65 90t46.5 108q15 56 25 123.5t14 119.5t5.5 107t1 75t-0.5 33v0z" />
    <glyph glyph-name="arrow1-up" unicode="&#xe90f;" 
d="M508 533l-384 -379q-1 -1 -5 -5.5t-7 -7.5t-7.5 -6.5t-8 -5.5t-8 -2t-8.5 3l-35 19q-7 7 -7 16.5t7 16.5l445 442q7 7 17 7.5t17 -6.5zM912 145zM495 625q6 7 16 6.5t17 -7.5l445 -442q7 -6 7 -16t-7 -17l-35 -19q-4 -3 -8.5 -3t-8 2t-8 5.5t-7.5 6.5t-7 7.5t-5 5.5
l-390 382zM106 145z" />
    <glyph glyph-name="sorting-desc" unicode="&#xe910;" 
d="M590 136h-157q-6 0 -8.5 5t0.5 10q16 29 78 136q3 5 8.5 5t8.5 -5q52 -88 79 -136q3 -5 0 -10t-9 -5zM315 321h388q14 0 21.5 -11.5t-0.5 -25.5q-38 -67 -194 -335q-7 -13 -20.5 -13t-21.5 13q-9 16 -97.5 168.5t-96.5 167.5q-7 11 -0.5 23.5t21.5 12.5z" />
    <glyph glyph-name="bingtu" unicode="&#xe7ae;" 
d="M8 374q2 16 2 17q3 32 13 69q13 46 34 87q23 44 46 72q31 36 42 46q22 21 58 49q31 23 74 44q44 20 85 30q5 1 42 9v0v-46v-40t-1 -40q0 -4 -4 -5q-44 -12 -81 -32q-34 -19 -64 -44q-36 -32 -61 -71q-35 -54 -45 -108q-4 -24 -7 -46q-2 -24 -1 -41q4 -58 26 -109
q19 -43 47 -78q32 -39 74 -68q43 -29 91 -45q30 -9 65 -14q33 -5 63 -3q60 3 114 24q45 17 85 47q27 19 51 47q34 38 56 85q16 36 23 73q0 1 2 15h134q-3 -23 -3 -24q-9 -42 -15 -62q-9 -35 -29 -73q-24 -46 -51 -79q-25 -29 -37 -41q-41 -41 -92 -71q-48 -28 -103 -46
q-41 -12 -73 -16q-8 -1 -23 -3t-18 -2q-1 0 -3 -1h-68l-1 1q-42 5 -43 5q-73 12 -138 38l30 -10q-2 1 -9 4q-14 6 -21 10q-41 20 -69 41q-38 29 -58 48q-11 10 -44 48q-22 27 -45 71q-23 42 -35 88q-10 38 -13 69q0 1 -2 17v64v0zM1016 402q-10 -12 -11 -13q-7 -5 -15 -5
h-283q-32 0 -96 0.5t-96 0.5q-10 0 -18 8t-8 18q1 217 0 451q0 8 5.5 15.5t13.5 9.5l1 1h42q16 -2 17 -2q52 -8 58 -9q52 -10 109 -36q37 -17 73 -42q39 -27 67 -56q14 -14 45 -51q20 -24 41 -62q26 -49 40 -101q10 -38 13 -70q0 -1 2 -17v-40zM873 512q-37 110 -134 180
q-55 39 -123 56v-236h257z" />
    <glyph glyph-name="checkbox" unicode="&#xe65a;" 
d="M827 -36h-630q-44 0 -74.5 30.5t-30.5 74.5v631q0 43 30.5 74t74.5 31h630q44 0 75 -31t31 -74v-631q0 -44 -31 -74.5t-75 -30.5zM776 546q-7 8 -17.5 8.5t-18.5 -6.5l-326 -282l-119 131q-7 8 -18 8.5t-18.5 -6.5t-8.5 -17.5t6 -17.5l137 -150q7 -8 17.5 -8.5t18.5 6.5
l345 299q8 7 8 18q0 10 -6 17v0z" />
  </font>
</defs>
</svg>
